<?xml version="1.0" encoding="UTF-8"?>
<svg version="1.1" xmlns="http://www.w3.org/2000/svg" width="500" height="500">
<path d="M0 0 C165 0 330 0 500 0 C500 165 500 330 500 500 C335 500 170 500 0 500 C0 335 0 170 0 0 Z " fill="#FEFEFE" transform="translate(0,0)"/>
<path d="M0 0 C0 1.32 0 2.64 0 4 C1.15628906 4.31130859 1.15628906 4.31130859 2.3359375 4.62890625 C10.42978925 7.11532086 10.42978925 7.11532086 12.17578125 9.82421875 C12.6875 11.75 12.6875 11.75 13 15 C14.32 15 15.64 15 17 15 C16.93489583 16.98567708 16.86979167 18.97135417 16.8046875 20.95703125 C16.86745538 23.31359719 16.86745538 23.31359719 19 26 C18.625 28.1875 18.625 28.1875 18 30 C17.34 30 16.68 30 16 30 C16 29.34 16 28.68 16 28 C14.515 28.495 14.515 28.495 13 29 C11.16796875 28.1875 11.16796875 28.1875 9.1875 27 C6.08030898 25.32292093 5.17754615 24.98731813 1.5 25.25 C0.675 25.4975 -0.15 25.745 -1 26 C-1 27.32 -1 28.64 -1 30 C-2.11375 30.309375 -3.2275 30.61875 -4.375 30.9375 C-6.36047674 31.66208502 -6.36047674 31.66208502 -8 33 C-8.91702201 35.36719634 -9.29988249 37.52373216 -9.61328125 40.0390625 C-9.74089844 40.68617188 -9.86851563 41.33328125 -10 42 C-10.99 42.495 -10.99 42.495 -12 43 C-12.33 43.99 -12.66 44.98 -13 46 C-13.99 46 -14.98 46 -16 46 C-16.103125 46.763125 -16.20625 47.52625 -16.3125 48.3125 C-17.04711194 51.18416484 -17.6716065 52.23042094 -20 54 C-20.66 54 -21.32 54 -22 54 C-22.144375 54.61875 -22.28875 55.2375 -22.4375 55.875 C-23 58 -23 58 -24 60 C-26.51963422 60.35672241 -29.01333243 60.44375117 -31.5546875 60.55859375 C-34.02715297 60.82711622 -34.02715297 60.82711622 -35.8203125 62.28515625 C-37.37784516 64.20234671 -37.37784516 64.20234671 -37 68 C-36.01 68.33 -35.02 68.66 -34 69 C-34.0825 69.7425 -34.165 70.485 -34.25 71.25 C-33.92489285 74.8261787 -32.51932565 75.55701755 -30 78 C-29.25 80.75 -29.25 80.75 -29 83 C-33.67201205 84.20568053 -38.21496292 84.09382426 -43 84 C-43 84.66 -43 85.32 -43 86 C-45.31 86 -47.62 86 -50 86 C-50.268125 85.21625 -50.53625 84.4325 -50.8125 83.625 C-51.84814432 80.71885077 -51.84814432 80.71885077 -55 79 C-55 77.68 -55 76.36 -55 75 C-55.53915039 75.32145996 -56.07830078 75.64291992 -56.63378906 75.97412109 C-59.49537032 77.21476951 -61.74502744 77.31872533 -64.859375 77.4140625 C-65.97441406 77.45273437 -67.08945313 77.49140625 -68.23828125 77.53125 C-69.39714844 77.5621875 -70.55601563 77.593125 -71.75 77.625 C-72.92433594 77.66367187 -74.09867188 77.70234375 -75.30859375 77.7421875 C-78.20557268 77.8363982 -81.10254626 77.92201602 -84 78 C-83.67 75.69 -83.34 73.38 -83 71 C-82.34 71 -81.68 71 -81 71 C-81 70.34 -81 69.68 -81 69 C-78.03 68.505 -78.03 68.505 -75 68 C-75 67.01 -75 66.02 -75 65 C-75.66 65 -76.32 65 -77 65 C-77 62.36 -77 59.72 -77 57 C-77.928125 56.896875 -78.85625 56.79375 -79.8125 56.6875 C-83.14046037 55.96970463 -84.11262269 55.7366971 -86 53 C-87.1875 49.8125 -87.1875 49.8125 -88 47 C-87.13632813 47.32484375 -86.27265625 47.6496875 -85.3828125 47.984375 C-76.20714879 50.7391932 -66.20862535 48.85831719 -57 47 C-57.061875 45.906875 -57.12375 44.81375 -57.1875 43.6875 C-57 40 -57 40 -55.8125 38 C-54 37 -54 37 -51.3125 37.3125 C-50.549375 37.539375 -49.78625 37.76625 -49 38 C-49 37.01 -49 36.02 -49 35 C-48.071875 34.855625 -47.14375 34.71125 -46.1875 34.5625 C-42.99274889 34.07899889 -42.99274889 34.07899889 -40 33 C-39.9175 31.88625 -39.835 30.7725 -39.75 29.625 C-39 26 -39 26 -36.9375 24.5625 C-36.298125 24.376875 -35.65875 24.19125 -35 24 C-35.495 21.03 -35.495 21.03 -36 18 C-34.35 18 -32.7 18 -31 18 C-30.525625 17.030625 -30.05125 16.06125 -29.5625 15.0625 C-28 12 -28 12 -27 11 C-26.95653201 9.00047242 -26.960008 6.99960012 -27 5 C-27 4.01 -27 3.02 -27 2 C-25.68 1.34 -24.36 0.68 -23 0 C-23 -0.66 -23 -1.32 -23 -2 C-20.93769732 -2.1690907 -18.8751477 -2.33517133 -16.8125 -2.5 C-15.08966797 -2.63921875 -15.08966797 -2.63921875 -13.33203125 -2.78125 C-4.22399783 -3.37919827 -4.22399783 -3.37919827 0 0 Z " fill="#458657" transform="translate(131,188)"/>
<path d="M0 0 C0.87624023 0.01281006 1.75248047 0.02562012 2.65527344 0.03881836 C12.52645759 0.34717849 20.1149676 2.6140306 27.33203125 9.578125 C35.125 17.93137255 35.125 17.93137255 35.125 26.5 C29.185 26.5 23.245 26.5 17.125 26.5 C16.63 25.51 16.63 25.51 16.125 24.5 C15.135 24.17 14.145 23.84 13.125 23.5 C12.67125 22.530625 12.2175 21.56125 11.75 20.5625 C10.41236246 17.42710666 10.41236246 17.42710666 7.9375 16.125 C2.42548658 14.90010813 -1.26427231 14.66480786 -6.25 17.25 C-9.89211154 20.37180989 -10.75772845 22.15061563 -11.17578125 26.9609375 C-11.17964844 28.25257813 -11.18351562 29.54421875 -11.1875 30.875 C-11.20425781 32.16148437 -11.22101563 33.44796875 -11.23828125 34.7734375 C-10.85053745 38.75093845 -9.99453741 41.13455185 -7.875 44.5 C-4.19412647 46.95391569 -1.43144412 46.72802759 2.8125 46.625 C3.51439453 46.61597656 4.21628906 46.60695312 4.93945312 46.59765625 C6.66811525 46.57413704 8.39660145 46.53826713 10.125 46.5 C10.125 45.84 10.125 45.18 10.125 44.5 C7.815 44.5 5.505 44.5 3.125 44.5 C3.125 43.18 3.125 41.86 3.125 40.5 C1.805 40.5 0.485 40.5 -0.875 40.5 C-0.875 36.21 -0.875 31.92 -0.875 27.5 C10.015 27.5 20.905 27.5 32.125 27.5 C32.125 38.72 32.125 49.94 32.125 61.5 C28.825 61.5 25.525 61.5 22.125 61.5 C20 59 20 59 19.125 56.5 C18.114375 57.11875 17.10375 57.7375 16.0625 58.375 C7.47794837 63.17826103 -1.90799768 63.88330336 -11.5703125 61.96484375 C-19.41241805 59.53246186 -24.68094768 55.52186033 -28.875 48.5 C-32.96975966 40.1057427 -33.28245617 29.11009397 -31.0390625 20.16796875 C-27.76503671 11.4335711 -23.00759298 6.43790601 -14.7265625 2.34375 C-9.76494821 0.21094779 -5.35209991 -0.1192913 0 0 Z " fill="#026735" transform="translate(363.875,189.5)"/>
<path d="M0 0 C7.59 0 15.18 0 23 0 C27.69215957 10.80419107 31.65353441 21.85129127 35.64038086 32.9309082 C36.82379785 36.21888972 38.01215544 39.50505537 39.20117188 42.79101562 C39.95341201 44.87489642 40.70537551 46.9588771 41.45703125 49.04296875 C41.81320023 50.02823044 42.1693692 51.01349213 42.53633118 52.02861023 C42.8605455 52.93077774 43.18475983 53.83294525 43.51879883 54.76245117 C43.80572098 55.55898605 44.09264313 56.35552094 44.38825989 57.17619324 C45 59 45 59 45 60 C38.07 60 31.14 60 24 60 C23.34 57.69 22.68 55.38 22 53 C11.11 52.505 11.11 52.505 0 52 C-0.33 53.98 -0.66 55.96 -1 58 C-1.33 58.66 -1.66 59.32 -2 60 C-8.27 60 -14.54 60 -21 60 C-18.74988891 49.87450011 -18.74988891 49.87450011 -17.13647461 45.51196289 C-16.77947983 44.53808121 -16.42248505 43.56419952 -16.05467224 42.56080627 C-15.67440384 41.54171677 -15.29413544 40.52262726 -14.90234375 39.47265625 C-14.50801651 38.40252792 -14.11368927 37.3323996 -13.70741272 36.22984314 C-12.45617306 32.83870535 -11.19682079 29.45064391 -9.9375 26.0625 C-9.08738573 23.75995197 -8.23777128 21.45721934 -7.38867188 19.15429688 C-5.84002729 14.962557 -4.29126238 10.77087077 -2.73413086 6.58227539 C-2.42261581 5.74338272 -2.11110077 4.90449005 -1.79014587 4.04017639 C-1 2 -1 2 0 0 Z " fill="#036735" transform="translate(185,191)"/>
<path d="M0 0 C0.9583374 0.00523682 1.9166748 0.01047363 2.90405273 0.01586914 C4.45576172 0.02070313 4.45576172 0.02070313 6.03881836 0.02563477 C7.12743164 0.03401367 8.21604492 0.04239258 9.33764648 0.05102539 C10.97636719 0.05779297 10.97636719 0.05779297 12.64819336 0.06469727 C15.35723144 0.07652713 18.06616248 0.09300996 20.77514648 0.11352539 C25.46406051 12.00034165 29.96789338 23.94221507 34.28466797 35.96923828 C35.23140426 38.60321257 36.18582349 41.23432991 37.14038086 43.86547852 C37.74696432 45.55085858 38.35310197 47.23639919 38.95874023 48.92211914 C39.24301376 49.7032457 39.52728729 50.48437225 39.82017517 51.28916931 C40.91326827 54.35378997 41.77514648 56.83386874 41.77514648 60.11352539 C35.17514648 60.11352539 28.57514648 60.11352539 21.77514648 60.11352539 C19.77514648 55.11352539 19.77514648 55.11352539 19.77514648 52.11352539 C12.51514648 52.11352539 5.25514648 52.11352539 -2.22485352 52.11352539 C-2.55485352 54.42352539 -2.88485352 56.73352539 -3.22485352 59.11352539 C-4.22485352 60.11352539 -4.22485352 60.11352539 -6.17431641 60.22705078 C-7.42329712 60.21919556 -7.42329712 60.21919556 -8.69750977 60.21118164 C-9.59663086 60.20795898 -10.49575195 60.20473633 -11.42211914 60.20141602 C-12.84041016 60.18884766 -12.84041016 60.18884766 -14.28735352 60.17602539 C-15.23674805 60.17151367 -16.18614258 60.16700195 -17.16430664 60.16235352 C-19.51788417 60.15052649 -21.87133829 60.13404564 -24.22485352 60.11352539 C-19.79640564 46.22884295 -14.88183445 32.53853097 -9.84985352 18.86352539 C-9.53167664 17.99612732 -9.21349976 17.12872925 -8.88568115 16.23504639 C-7.9734198 13.75058869 -7.05699173 11.2677146 -6.13891602 8.78540039 C-5.86001526 8.02589081 -5.5811145 7.26638123 -5.29376221 6.4838562 C-2.93921545 0.14997643 -2.93921545 0.14997643 0 0 Z " fill="#036735" transform="translate(426.224853515625,190.886474609375)"/>
<path d="M0 0 C6.27 -0.0825 12.54 -0.165 19 -0.25 C20.96324219 -0.28641602 22.92648437 -0.32283203 24.94921875 -0.36035156 C26.52863476 -0.3720486 28.10806295 -0.38223801 29.6875 -0.390625 C30.88922852 -0.4213208 30.88922852 -0.4213208 32.11523438 -0.45263672 C38.51664031 -0.45654956 43.82149055 1.08269361 48.61987305 5.48675537 C53.3583624 10.68228724 53.52421959 16.06457402 53.34765625 22.8046875 C52.69852207 28.77088708 50.51925576 32.890407 46.0625 36.875 C40.18301214 40.95464464 35.64210258 41.26661097 28.6875 41.125 C25.820625 41.08375 22.95375 41.0425 20 41 C20 47.27 20 53.54 20 60 C13.4 60 6.8 60 0 60 C0 40.2 0 20.4 0 0 Z " fill="#036735" transform="translate(237,191)"/>
<path d="M0 0 C6.6 0 13.2 0 20 0 C20 19.8 20 39.6 20 60 C13.4 60 6.8 60 0 60 C0 40.2 0 20.4 0 0 Z " fill="#066937" transform="translate(301,191)"/>
<path d="M0 0 C21 0 21 0 30 4 C33.40389188 7.48691363 34.26497016 10.25667053 34.5 15 C34.27275047 19.72963091 33.3435476 22.48927502 30 26 C24.28672756 29.86318039 19.26647578 30.53652829 12.5 30.25 C11.26636719 30.22292969 11.26636719 30.22292969 10.0078125 30.1953125 C8.00469196 30.1487283 6.00218179 30.07700699 4 30 C4 34.62 4 39.24 4 44 C2.68 44 1.36 44 0 44 C0 29.48 0 14.96 0 0 Z " fill="#F8F8F8" transform="translate(164,266)"/>
<path d="M0 0 C1.2065625 0.0309375 1.2065625 0.0309375 2.4375 0.0625 C5.15140597 5.84286941 7.8563963 11.62734783 10.55517578 17.41479492 C11.47466664 19.3838565 12.3962079 21.35196195 13.31982422 23.3190918 C14.64568354 26.14384149 15.96417431 28.97192748 17.28125 31.80078125 C17.90465271 33.12279289 17.90465271 33.12279289 18.54064941 34.47151184 C18.9210437 35.29213608 19.30143799 36.11276031 19.69335938 36.95825195 C20.03089233 37.67995071 20.36842529 38.40164948 20.71618652 39.1452179 C21.4375 41.0625 21.4375 41.0625 21.4375 44.0625 C19.1875 44.125 19.1875 44.125 16.4375 43.0625 C14.41351489 39.75170007 12.4375 35.99927151 12.4375 32.0625 C0.0625 32.5575 0.0625 32.5575 -12.5625 33.0625 C-14.2125 36.6925 -15.8625 40.3225 -17.5625 44.0625 C-19.2125 44.0625 -20.8625 44.0625 -22.5625 44.0625 C-20.99511418 38.97342101 -18.9129203 34.24011093 -16.68359375 29.41796875 C-16.31146255 28.60757645 -15.93933136 27.79718414 -15.55592346 26.9622345 C-14.77324417 25.25969325 -13.98903167 23.5578561 -13.20336914 21.85668945 C-11.99672625 19.24290854 -10.79587706 16.62652222 -9.59570312 14.00976562 C-8.83367427 12.35400972 -8.07131615 10.69840529 -7.30859375 9.04296875 C-6.9481749 8.25762253 -6.58775604 7.47227631 -6.21641541 6.66313171 C-3.16855594 0.07728185 -3.16855594 0.07728185 0 0 Z " fill="#121212" transform="translate(221.5625,265.9375)"/>
<path d="M0 0 C1.65 0 3.3 0 5 0 C10.06051642 9.85312314 14.83998457 19.82623675 19.5 29.875 C20.04043945 31.03435059 20.58087891 32.19370117 21.13769531 33.38818359 C21.63881836 34.47437988 22.13994141 35.56057617 22.65625 36.6796875 C23.10806641 37.65663574 23.55988281 38.63358398 24.02539062 39.64013672 C25 42 25 42 25 44 C23.35 44 21.7 44 20 44 C18.35 40.37 16.7 36.74 15 33 C6.75 32.67 -1.5 32.34 -10 32 C-10.99 34.97 -11.98 37.94 -13 41 C-13.66 41.99 -14.32 42.98 -15 44 C-16.32 44 -17.64 44 -19 44 C-18.34698208 38.89745305 -16.12722205 34.584241 -13.96484375 29.98046875 C-13.56672989 29.12189774 -13.16861603 28.26332672 -12.75843811 27.3787384 C-11.48984693 24.64594198 -10.21378989 21.91670811 -8.9375 19.1875 C-8.07437459 17.33161043 -7.21173869 15.47549312 -6.34960938 13.61914062 C-4.2387371 9.07676808 -2.12116375 4.53757526 0 0 Z " fill="#111111" transform="translate(399,266)"/>
<path d="M0 0 C-0.35962898 2.85179471 -0.88985856 3.89395384 -2.99609375 5.921875 C-3.80175781 6.52515625 -4.60742188 7.1284375 -5.4375 7.75 C-6.64212891 8.67039062 -6.64212891 8.67039062 -7.87109375 9.609375 C-10 11 -10 11 -12 11 C-10.05069148 14.79032212 -7.88611469 16.92908073 -4.55859375 19.54296875 C0.19028419 23.98239599 3.07824855 29.98186039 3.4375 36.4375 C3.3513556 39.96367752 3.21728518 40.73797964 0.875 43.5625 C-4.39029773 46.3277283 -11.27025553 45.57632517 -17 45 C-19.93359375 43.9765625 -19.93359375 43.9765625 -22 43 C-22.33 43.33 -22.66 43.66 -23 44 C-31.27933688 45.0816553 -39.72275313 45.14506566 -48.0625 45.25 C-48.96645508 45.2713501 -49.87041016 45.2927002 -50.80175781 45.31469727 C-55.88539368 45.34086724 -58.69620216 44.92625648 -63 42 C-64.58166745 42.70670248 -66.15960882 43.42428987 -67.70703125 44.203125 C-72.92175029 46.01539533 -78.60022987 45.82972078 -84 45 C-86.848928 43.2442653 -87.43175808 42.07616684 -89 39 C-89 38.01 -89 37.02 -89 36 C-87.0625 36.375 -87.0625 36.375 -85 37 C-84.67 37.66 -84.34 38.32 -84 39 C-81.27022936 39.08126109 -78.5428983 39.14061663 -75.8125 39.1875 C-75.04357422 39.21263672 -74.27464844 39.23777344 -73.48242188 39.26367188 C-68.78306764 39.32417858 -65.84882953 38.99353408 -62 36 C-61.34 35.34 -60.68 34.68 -60 34 C-59.34 35.65 -58.68 37.3 -58 39 C-47.59607674 40.39300013 -47.59607674 40.39300013 -38 37 C-37.34 36.67 -36.68 36.34 -36 36 C-36.33 37.32 -36.66 38.64 -37 40 C-33.56769552 39.73606499 -33.56769552 39.73606499 -30 39 C-29.34 38.01 -28.68 37.02 -28 36 C-27.34 36 -26.68 36 -26 36 C-26.33 37.32 -26.66 38.64 -27 40 C-24.59122743 39.88658466 -24.59122743 39.88658466 -22 39 C-20.15565651 36.53884453 -20.15565651 36.53884453 -19 34 C-18 36 -18 36 -18 39 C-7.95178601 39.16489368 -7.95178601 39.16489368 2 38 C1.09238938 36.24528614 0.17349289 34.49640736 -0.75 32.75 C-1.26046875 31.77546875 -1.7709375 30.8009375 -2.296875 29.796875 C-5.21988751 24.9966985 -7.86971387 23.02511295 -13 21 C-15 18 -15 18 -14.9375 14.625 C-13.80244127 10.23610625 -12.4312198 8.90907766 -9 6 C-8.40058594 5.45859375 -7.80117187 4.9171875 -7.18359375 4.359375 C-2.30476051 0 -2.30476051 0 0 0 Z " fill="#78B03C" transform="translate(124,265)"/>
<path d="M0 0 C5 0 5 0 6.5546875 1.30664062 C7.20824219 2.22219727 7.20824219 2.22219727 7.875 3.15625 C8.37942627 3.84195068 8.88385254 4.52765137 9.40356445 5.23413086 C9.93038818 5.98186768 10.45721191 6.72960449 11 7.5 C12.13675993 9.05526198 13.27615907 10.60859781 14.41796875 12.16015625 C15.29461182 13.35922607 15.29461182 13.35922607 16.18896484 14.58251953 C19.63842617 19.18707144 23.34321225 23.58684396 27.03710938 27.99609375 C31 32.7888834 31 32.7888834 31 35 C31.66 35 32.32 35 33 35 C33 23.45 33 11.9 33 0 C34.32 0 35.64 0 37 0 C37 14.52 37 29.04 37 44 C31.37465158 42.87493032 31.37465158 42.87493032 29.01953125 39.859375 C28.49987793 39.20678711 27.98022461 38.55419922 27.44482422 37.88183594 C26.90615723 37.17833008 26.36749023 36.47482422 25.8125 35.75 C25.24805176 35.03360352 24.68360352 34.31720703 24.10205078 33.57910156 C22.38778755 31.39625693 20.69232757 29.19987612 19 27 C18.01217545 25.72881164 17.02392274 24.45795583 16.03515625 23.1875 C12.64973651 18.82178833 9.31472365 14.41963154 6 10 C5.67 21.22 5.34 32.44 5 44 C3.35 44 1.7 44 0 44 C0 29.48 0 14.96 0 0 Z " fill="#0C0C0C" transform="translate(431,266)"/>
<path d="M0 0 C2.625 1.6875 2.625 1.6875 4.625 4.6875 C4.625 5.6775 4.625 6.6675 4.625 7.6875 C5.945 8.0175 7.265 8.3475 8.625 8.6875 C8.625 9.3475 8.625 10.0075 8.625 10.6875 C14.565 10.6875 20.505 10.6875 26.625 10.6875 C26.955 9.6975 27.285 8.7075 27.625 7.6875 C27.625 9.0075 27.625 10.3275 27.625 11.6875 C15.415 11.6875 3.205 11.6875 -9.375 11.6875 C-9.375 15.9775 -9.375 20.2675 -9.375 24.6875 C-8.055 24.6875 -6.735 24.6875 -5.375 24.6875 C-5.375 26.0075 -5.375 27.3275 -5.375 28.6875 C-3.065 28.6875 -0.755 28.6875 1.625 28.6875 C1.625 29.3475 1.625 30.0075 1.625 30.6875 C-3.2797807 32.3224269 -8.25673109 32.18549373 -13.375 31.6875 C-17.6064705 29.40250593 -18.93485703 27.16932424 -20.375 22.6875 C-20.7109375 19.12890625 -20.7109375 19.12890625 -20.75 15.25 C-20.77835937 13.97253906 -20.80671875 12.69507813 -20.8359375 11.37890625 C-20.19204327 6.2222957 -18.08255804 3.11046503 -14.125 -0.1875 C-9.05218997 -2.26274047 -4.96472389 -1.93072596 0 0 Z " fill="#F9FBF9" transform="translate(372.375,205.3125)"/>
<path d="M0 0 C1.65 0 3.3 0 5 0 C5 8.25 5 16.5 5 25 C8.26338022 21.73661978 11.49141416 18.46322339 14.6875 15.13671875 C16.45799338 13.31998114 18.2288365 11.50358431 20 9.6875 C20.88945312 8.75615234 21.77890625 7.82480469 22.6953125 6.86523438 C23.55898438 5.98544922 24.42265625 5.10566406 25.3125 4.19921875 C26.09238281 3.39315186 26.87226563 2.58708496 27.67578125 1.7565918 C30.37817358 -0.28581501 31.6928907 -0.39326798 35 0 C30.13998705 7.15672794 24.18597308 13.01215417 18 19 C19.67083482 23.00223223 22.43295416 26.02106969 25.25 29.25 C29.36890638 34.03639981 33.28935869 38.88533225 37 44 C34.3125 44.31640625 34.3125 44.31640625 31 44 C28.4375 41.83984375 28.4375 41.83984375 26 38.9375 C25.14664062 37.9371875 24.29328125 36.936875 23.4140625 35.90625 C22.61742187 34.9471875 21.82078125 33.988125 21 33 C19.79277054 31.64484915 18.58465854 30.29048301 17.375 28.9375 C15 26 15 26 15 24 C10.94169577 26.20307944 7.75056864 28.25617046 5 32 C4.28504428 35.99748966 4.07115889 39.94394354 4 44 C2.68 44 1.36 44 0 44 C0 29.48 0 14.96 0 0 Z " fill="#101010" transform="translate(251,266)"/>
<path d="M0 0 C21 0 21 0 30 4 C33.40389188 7.48691363 34.26497016 10.25667053 34.5 15 C34.27275047 19.72963091 33.3435476 22.48927502 30 26 C24.28672756 29.86318039 19.26647578 30.53652829 12.5 30.25 C11.26636719 30.22292969 11.26636719 30.22292969 10.0078125 30.1953125 C8.00469196 30.1487283 6.00218179 30.07700699 4 30 C4 34.62 4 39.24 4 44 C2.68 44 1.36 44 0 44 C0 29.48 0 14.96 0 0 Z M4 4 C4 11.26 4 18.52 4 26 C6.84625 26.0825 9.6925 26.165 12.625 26.25 C13.95265381 26.30462402 13.95265381 26.30462402 15.30712891 26.36035156 C20.68827905 26.43544301 23.75397618 25.61648717 28 22 C29.8483698 18.3032604 29.47016254 14.03556179 29 10 C26.62515786 6.48171535 23.97974501 5.26529937 20 4 C17.18156537 3.86197676 14.49667223 3.81023687 11.6875 3.875 C9.150625 3.91625 6.61375 3.9575 4 4 Z " fill="#070707" transform="translate(164,266)"/>
<path d="M0 0 C0.721875 0.495 1.44375 0.99 2.1875 1.5 C1.8575 2.82 1.5275 4.14 1.1875 5.5 C0.33414062 5.17773438 -0.51921875 4.85546875 -1.3984375 4.5234375 C-4.90328627 3.47278489 -7.7883525 3.16773006 -11.4375 3.125 C-12.54351562 3.09664063 -13.64953125 3.06828125 -14.7890625 3.0390625 C-17.89581961 3.2687955 -17.89581961 3.2687955 -20.1953125 5.2890625 C-22.45739948 8.38167416 -22.09941361 10.77012301 -21.8125 14.5 C-16.74027127 16.6614611 -11.50613502 17.98671568 -6.1875 19.40234375 C-1.4340302 20.94832178 1.39384076 22.30951114 4.1875 26.5 C4.52293441 30.65938672 4.59483724 33.42175435 3.125 37.3125 C-0.48378424 41.38693382 -3.85216038 42.30908807 -9.1015625 42.8203125 C-16.50586898 43.05813819 -21.54744744 42.50963364 -27.8125 38.5 C-27.4825 36.85 -27.1525 35.2 -26.8125 33.5 C-25.760625 34.16 -24.70875 34.82 -23.625 35.5 C-18.01476438 38.32017211 -11.95377731 38.40169548 -5.8125 37.5 C-3.40449559 36.34140055 -3.40449559 36.34140055 -1.8125 34.5 C-1.47869186 30.87436186 -1.47869186 30.87436186 -1.8125 27.5 C-6.97426273 24.75173115 -12.07144784 23.18926154 -17.69140625 21.66015625 C-21.63149016 20.19556937 -24.88774954 18.34950091 -26.8125 14.5 C-27.4712959 9.70961264 -27.57266922 6.52079867 -24.625 2.5625 C-17.89206751 -2.37498382 -7.68726292 -3.88041262 0 0 Z " fill="#111111" transform="translate(338.8125,267.5)"/>
<path d="M0 0 C4.32225097 3.98102063 6.63623453 6.9333725 7.3359375 12.83203125 C7.43369944 20.29126713 6.81238103 26.01840102 1.50390625 31.5625 C-2.53622389 35.1089484 -5.63090699 36.12950965 -10.88671875 36.09765625 C-11.82451172 36.09443359 -12.76230469 36.09121094 -13.72851562 36.08789062 C-15.19321289 36.07532227 -15.19321289 36.07532227 -16.6875 36.0625 C-18.16959961 36.05573242 -18.16959961 36.05573242 -19.68164062 36.04882812 C-22.12111958 36.0370432 -24.56056741 36.01910783 -27 36 C-27 42.6 -27 49.2 -27 56 C-33.27 56 -39.54 56 -46 56 C-46 54.68 -46 53.36 -46 52 C-40.72 52 -35.44 52 -30 52 C-30 45.73 -30 39.46 -30 33 C-21.5 32.75 -21.5 32.75 -18.87304688 32.70214844 C-11.98559666 32.40554473 -6.49671157 30.56241451 -1.625 25.5625 C1.37543674 20.83104206 2.27620995 17.10892884 2.25 11.5 C2.25515625 10.3965625 2.2603125 9.293125 2.265625 8.15625 C2.00303615 5.03607666 1.32438782 2.81695186 0 0 Z " fill="#9AB598" transform="translate(287,199)"/>
<path d="M0 0 C11.55 0 23.1 0 35 0 C35 1.32 35 2.64 35 4 C30.05 4 25.1 4 20 4 C20 17.2 20 30.4 20 44 C18.35 44 16.7 44 15 44 C15 30.8 15 17.6 15 4 C10.05 4 5.1 4 0 4 C0 2.68 0 1.36 0 0 Z " fill="#0D0D0D" transform="translate(346,266)"/>
<path d="M0 0 C-0.37604624 2.45440232 -0.65393448 3.69060003 -2.53466797 5.37207031 C-3.50364014 5.96906738 -3.50364014 5.96906738 -4.4921875 6.578125 C-5.54986328 7.23554688 -5.54986328 7.23554688 -6.62890625 7.90625 C-7.37011719 8.3496875 -8.11132812 8.793125 -8.875 9.25 C-9.60847656 9.70890625 -10.34195313 10.1678125 -11.09765625 10.640625 C-16.58663504 14 -16.58663504 14 -20 14 C-19.59537935 17.93315637 -19.18633011 21.86582448 -18.77319336 25.7980957 C-18.5645513 27.79288782 -18.35940662 29.78804472 -18.15429688 31.78320312 C-18.02216797 33.03681641 -17.89003906 34.29042969 -17.75390625 35.58203125 C-17.63345947 36.73936768 -17.5130127 37.8967041 -17.38891602 39.08911133 C-17.08498354 42.05806251 -17.08498354 42.05806251 -16 45 C-13.39576408 45.02697137 -10.79180756 45.04682489 -8.1875 45.0625 C-7.08051758 45.07506836 -7.08051758 45.07506836 -5.95117188 45.08789062 C-2.70077932 45.10259828 -0.10595105 45.03531702 3 44 C2.62095792 40.70924004 2.62095792 40.70924004 1 38 C0.95936168 36.33382885 0.957279 34.66611905 1 33 C4.16115776 34.36983503 4.9927092 34.9890638 7 38 C6.9765625 40.26171875 6.9765625 40.26171875 6.625 42.6875 C6.45871094 43.89986328 6.45871094 43.89986328 6.2890625 45.13671875 C6.14597656 46.05904297 6.14597656 46.05904297 6 47 C-0.72197731 50.93481599 -8.40384079 50.90939934 -16 50 C-18.10425631 48.44354595 -18.83713142 47.32573717 -20 45 C-20.37945397 42.23375445 -20.71205019 39.47855822 -21.0078125 36.703125 C-21.09755341 35.87673523 -21.18729431 35.05034546 -21.27975464 34.19891357 C-21.46836839 32.44728491 -21.65484308 30.69542481 -21.83935547 28.94335938 C-22.12248468 26.27371713 -22.41832408 23.60568367 -22.71484375 20.9375 C-22.89661826 19.2344586 -23.07763223 17.53133581 -23.2578125 15.828125 C-23.34733185 15.03416321 -23.4368512 14.24020142 -23.52908325 13.42218018 C-23.97395563 9.06267546 -23.96586737 5.32784541 -23 1 C-22.34 1 -21.68 1 -21 1 C-20.34 3.97 -19.68 6.94 -19 10 C-17.79601562 9.278125 -16.59203125 8.55625 -15.3515625 7.8125 C-13.77617791 6.87477108 -12.20064962 5.93728354 -10.625 5 C-9.8309375 4.52304688 -9.036875 4.04609375 -8.21875 3.5546875 C-7.45820313 3.10351562 -6.69765625 2.65234375 -5.9140625 2.1875 C-5.2123291 1.76855469 -4.5105957 1.34960938 -3.78759766 0.91796875 C-2 0 -2 0 0 0 Z " fill="#6FAA2F" transform="translate(147,251)"/>
<path d="M0 0 C1.32 0 2.64 0 4 0 C4 19.8 4 39.6 4 60 C-2.6 60 -9.2 60 -16 60 C-16 58.68 -16 57.36 -16 56 C-10.72 56 -5.44 56 0 56 C0 37.52 0 19.04 0 0 Z " fill="#A0BA9E" transform="translate(321,195)"/>
<path d="M0 0 C2.43385413 2.19527494 3.73576939 4.19979841 5.04296875 7.1953125 C5.39423828 7.99324219 5.74550781 8.79117187 6.10742188 9.61328125 C6.64206055 10.85658203 6.64206055 10.85658203 7.1875 12.125 C7.55552734 12.96160156 7.92355469 13.79820312 8.30273438 14.66015625 C11 20.83534323 11 20.83534323 11 22 C4.4 22 -2.2 22 -9 22 C-8.30250915 18.51254574 -7.78002884 16.15752525 -6.40625 13.046875 C-6.09816406 12.345625 -5.79007812 11.644375 -5.47265625 10.921875 C-5.15167969 10.20515625 -4.83070313 9.4884375 -4.5 8.75 C-4.01853516 7.65171875 -4.01853516 7.65171875 -3.52734375 6.53125 C-1.14218231 1.14218231 -1.14218231 1.14218231 0 0 Z " fill="#F7F7F7" transform="translate(401,272)"/>
<path d="M0 0 C2.44874747 3.6731212 4.24234546 7.51515877 6.125 11.5 C6.68380859 12.65822266 6.68380859 12.65822266 7.25390625 13.83984375 C7.60582031 14.58363281 7.95773438 15.32742188 8.3203125 16.09375 C8.64273926 16.77115234 8.96516602 17.44855469 9.29736328 18.14648438 C10 20 10 20 10 23 C3.73 23 -2.54 23 -9 23 C-7.8743619 16.24617143 -7.8743619 16.24617143 -6.40625 12.94921875 C-6.09816406 12.25119141 -5.79007813 11.55316406 -5.47265625 10.83398438 C-5.15167969 10.12564453 -4.83070313 9.41730469 -4.5 8.6875 C-4.01853516 7.59598633 -4.01853516 7.59598633 -3.52734375 6.48242188 C-1.15334821 1.15334821 -1.15334821 1.15334821 0 0 Z " fill="#F6F6F6" transform="translate(221,271)"/>
<path d="M0 0 C2.86940944 1.01381101 3.84135953 1.69771541 5.27825928 4.4356842 C5.82452972 5.97004372 5.82452972 5.97004372 6.38183594 7.53540039 C6.8019696 8.69322525 7.22210327 9.85105011 7.65496826 11.04396057 C8.09846099 12.31173425 8.54158793 13.57963594 8.984375 14.84765625 C9.44826366 16.14321382 9.91338928 17.43832909 10.37969971 18.73301697 C11.60259174 22.13937685 12.80768473 25.55178042 14.00946045 28.96563721 C15.23838153 32.44536882 16.48560462 35.91852623 17.73046875 39.39257812 C19.54090289 44.45665659 21.34586996 49.5226084 23.13574219 54.59399414 C23.49674011 55.61610489 23.85773804 56.63821564 24.22967529 57.69129944 C25 60 25 60 25 61 C18.07 61 11.14 61 4 61 C3.67 59.68 3.34 58.36 3 57 C11.415 56.505 11.415 56.505 20 56 C19.39414063 54.33912354 18.78828125 52.67824707 18.1640625 50.96704102 C16.16704353 45.49133654 14.17149946 40.01509583 12.17697144 34.53848362 C10.96713813 31.21667 9.7567058 27.8950772 8.54492188 24.57397461 C7.15318275 20.7595934 5.76401826 16.94427912 4.375 13.12890625 C3.93752441 11.93100967 3.50004883 10.7331131 3.04931641 9.49891663 C2.64890137 8.3978508 2.24848633 7.29678497 1.8359375 6.16235352 C1.48063965 5.18750504 1.1253418 4.21265656 0.75927734 3.20826721 C0 1 0 1 0 0 Z " fill="#9EB99D" transform="translate(209,194)"/>
<path d="M0 0 C0.66 0 1.32 0 2 0 C2.23359222 0.6403569 2.46718445 1.28071381 2.70785522 1.94047546 C5.14024835 8.60803472 7.57371825 15.27520026 10.0078125 21.94213867 C10.91596631 24.42999359 11.82384594 26.91794862 12.73144531 29.40600586 C14.0363872 32.98317423 15.34231611 36.55998091 16.6484375 40.13671875 C17.05371674 41.24834885 17.45899597 42.35997894 17.8765564 43.5052948 C18.25679962 44.54599625 18.63704285 45.58669769 19.02880859 46.65893555 C19.5284462 48.02794258 19.5284462 48.02794258 20.03817749 49.42460632 C20.69389091 51.18035666 21.39094446 52.92108554 22.12319946 54.64631653 C23 57 23 57 23 60 C16.4 60 9.8 60 3 60 C2.67 58.68 2.34 57.36 2 56 C7.61 56 13.22 56 19 56 C17.58560245 52.00120693 16.17068746 48.00260524 14.75430298 44.0045166 C14.25261305 42.58816658 13.75112688 41.17174437 13.24984741 39.75524902 C10.6960101 32.54054218 8.13398797 25.33010071 5.48828125 18.1484375 C4.93237305 16.63854248 4.93237305 16.63854248 4.36523438 15.09814453 C3.67678465 13.23556232 2.98424117 11.37448682 2.28710938 9.51513672 C1.98224609 8.69029785 1.67738281 7.86545898 1.36328125 7.015625 C0.96556519 5.95263184 0.96556519 5.95263184 0.55981445 4.86816406 C0 3 0 3 0 0 Z " fill="#9CB89C" transform="translate(449,195)"/>
<path d="M0 0 C0.33 0 0.66 0 1 0 C1.08564209 0.92337158 1.17128418 1.84674316 1.25952148 2.7980957 C1.57911866 6.22561895 1.90188607 9.6528129 2.22680664 13.07983398 C2.36675074 14.56278739 2.50543217 16.04586053 2.64282227 17.52905273 C2.84058663 19.66162366 3.0428962 21.79372201 3.24609375 23.92578125 C3.42676392 25.85031128 3.42676392 25.85031128 3.61108398 27.8137207 C3.89467913 31.01562947 3.89467913 31.01562947 5 34 C4.5625 36.6875 4.5625 36.6875 4 39 C3.67 39 3.34 39 3 39 C2.88785156 38.07380859 2.88785156 38.07380859 2.7734375 37.12890625 C1.29011411 27.57455851 -2.92437332 21.03000936 -10.6796875 15.2890625 C-11.33324219 14.65097656 -11.33324219 14.65097656 -12 14 C-12 13.01 -12 12.02 -12 11 C-9.62890625 9.0625 -9.62890625 9.0625 -6.5625 7 C-2.23419259 4.32049576 -2.23419259 4.32049576 0 0 Z " fill="#F3F8EE" transform="translate(124,265)"/>
<path d="M0 0 C7.26 0 14.52 0 22 0 C22.495 1.98 22.495 1.98 23 4 C16.73 4 10.46 4 4 4 C3.67 5.98 3.34 7.96 3 10 C2.67 10.66 2.34 11.32 2 12 C-4.27 12 -10.54 12 -17 12 C-16.67 10.68 -16.34 9.36 -16 8 C-11.38 8 -6.76 8 -2 8 C-1.34 5.36 -0.68 2.72 0 0 Z " fill="#9DB89C" transform="translate(185,243)"/>
<path d="M0 0 C7.26 0 14.52 0 22 0 C22.495 1.98 22.495 1.98 23 4 C16.73 4.33 10.46 4.66 4 5 C3.34 7.31 2.68 9.62 2 12 C-4.6 12 -11.2 12 -18 12 C-17.67 10.68 -17.34 9.36 -17 8 C-12.05 7.67 -7.1 7.34 -2 7 C-1.34 4.69 -0.68 2.38 0 0 Z " fill="#9FB99D" transform="translate(424,243)"/>
<path d="M0 0 C3 1 3 1 4.1640625 2.66015625 C5.23760983 5.66508547 5.33813657 8.24881363 5.375 11.4375 C5.40335938 12.54996094 5.43171875 13.66242188 5.4609375 14.80859375 C4.90307906 18.67105433 3.71106851 20.24496822 1 23 C-4.69746636 26.37196989 -10.45248116 27.0492172 -17 26 C-20.1875 24 -20.1875 24 -22 21 C-22.7253621 15.2877735 -22.01051666 12.01752776 -19 7 C-18.67 7.66 -18.34 8.32 -18 9 C-18.33 9.66 -18.66 10.32 -19 11 C-19.25 14.5 -19.25 14.5 -19 18 C-16.07028166 20.92971834 -13.82799358 20.92038523 -9.75 21.3125 C-5.11515001 20.9262625 -1.96862168 19.30901625 2 17 C2.2864876 11.36574385 2.07526814 8.81346318 -1 4 C-0.6875 1.6875 -0.6875 1.6875 0 0 Z " fill="#77AF3A" transform="translate(47,274)"/>
<path d="M0 0 C2.5625 1.625 2.5625 1.625 3.5625 3.625 C2.45841797 3.57279297 2.45841797 3.57279297 1.33203125 3.51953125 C-5.27601222 3.33621697 -9.08296632 3.50601469 -14.05078125 8.125 C-16.23304308 12.0592185 -15.75214281 15.96086249 -15.625 20.375 C-15.61146484 21.26316406 -15.59792969 22.15132812 -15.58398438 23.06640625 C-15.54871309 25.25322578 -15.49942752 27.43879966 -15.4375 29.625 C-19.05623304 26.2397336 -20.31807505 24.31065381 -20.67578125 19.26171875 C-20.70027344 17.95847656 -20.72476562 16.65523437 -20.75 15.3125 C-20.78738281 14.01699219 -20.82476562 12.72148437 -20.86328125 11.38671875 C-20.27269182 6.16894239 -18.18431671 3.08068059 -14.1875 -0.25 C-9.06633037 -2.34502394 -4.99010431 -1.99604172 0 0 Z " fill="#97B497" transform="translate(372.4375,205.375)"/>
<path d="M0 0 C1.32 0 2.64 0 4 0 C4 14.52 4 29.04 4 44 C2.68 44 1.36 44 0 44 C0 29.48 0 14.96 0 0 Z " fill="#000000" transform="translate(296,266)"/>
<path d="M0 0 C2.1385485 2.1385485 2.42655063 3.13275314 3 6 C1.77493102 6.65357278 0.54470484 7.29748233 -0.6875 7.9375 C-1.37199219 8.29714844 -2.05648437 8.65679687 -2.76171875 9.02734375 C-11.04989591 12.62901236 -23.30655098 12.43317862 -31.75 9.3125 C-35.48311461 7.55906738 -37.81367416 5.5776241 -40 2 C-39.505 2.28875 -39.01 2.5775 -38.5 2.875 C-28.30558428 7.46248707 -16.62460453 7.34820863 -6.0859375 3.94921875 C-3.78282434 2.90117287 -1.96381802 1.58616071 0 0 Z " fill="#99B599" transform="translate(383,245)"/>
<path d="M0 0 C9.24324324 -0.48648649 9.24324324 -0.48648649 12.625 1.6875 C14.2921273 4.49130501 14.6407669 5.79616552 14 9 C12.625 11.3125 12.625 11.3125 10 13 C6.59270118 13.33645741 3.43939628 13.18102086 0 13 C0 8.71 0 4.42 0 0 Z " fill="#F4F8F5" transform="translate(257,205)"/>
<path d="M0 0 C0.66 0 1.32 0 2 0 C2.84003448 2.7481128 3.67222151 5.49819581 4.5 8.25 C4.73847656 9.02730469 4.97695313 9.80460938 5.22265625 10.60546875 C5.56103516 11.73662109 5.56103516 11.73662109 5.90625 12.890625 C6.11572266 13.58188477 6.32519531 14.27314453 6.54101562 14.98535156 C7 17 7 17 7 21 C3.04 21 -0.92 21 -5 21 C-4.3900874 16.01155691 -3.36525565 11.39844654 -1.9375 6.5625 C-1.57527344 5.32628906 -1.21304687 4.09007812 -0.83984375 2.81640625 C-0.56269531 1.88699219 -0.28554688 0.95757812 0 0 Z " fill="#91B193" transform="translate(434,208)"/>
<path d="M0 0 C2.68599431 2.68599431 3.05712659 5.16180947 4.0625 8.8125 C4.40410156 10.03582031 4.74570313 11.25914062 5.09765625 12.51953125 C5.82471182 15.32388845 6.43183734 18.15918668 7 21 C2.71 21 -1.58 21 -6 21 C-2.57894737 2.57894737 -2.57894737 2.57894737 0 0 Z " fill="#93B295" transform="translate(196,208)"/>
<path d="M0 0 C0.99 0 1.98 0 3 0 C3 10.89 3 21.78 3 33 C-0.3 33 -3.6 33 -7 33 C-7 31.68 -7 30.36 -7 29 C-4.69 29 -2.38 29 0 29 C0 19.43 0 9.86 0 0 Z " fill="#9BB699" transform="translate(396,222)"/>
<path d="M0 0 C-0.37604624 2.45440232 -0.65393448 3.69060003 -2.53466797 5.37207031 C-3.50364014 5.96906738 -3.50364014 5.96906738 -4.4921875 6.578125 C-5.54986328 7.23554688 -5.54986328 7.23554688 -6.62890625 7.90625 C-7.37011719 8.3496875 -8.11132812 8.793125 -8.875 9.25 C-9.60847656 9.70890625 -10.34195313 10.1678125 -11.09765625 10.640625 C-16.58663504 14 -16.58663504 14 -20 14 C-20 14.66 -20 15.32 -20 16 C-20.66 16 -21.32 16 -22 16 C-23.42705634 10.69276568 -24.4002792 6.46108889 -23 1 C-22.34 1 -21.68 1 -21 1 C-20.34 3.97 -19.68 6.94 -19 10 C-17.79601562 9.278125 -16.59203125 8.55625 -15.3515625 7.8125 C-13.77617791 6.87477108 -12.20064962 5.93728354 -10.625 5 C-9.8309375 4.52304688 -9.036875 4.04609375 -8.21875 3.5546875 C-7.45820313 3.10351562 -6.69765625 2.65234375 -5.9140625 2.1875 C-5.2123291 1.76855469 -4.5105957 1.34960938 -3.78759766 0.91796875 C-2 0 -2 0 0 0 Z " fill="#77AF3A" transform="translate(147,251)"/>
<path d="M0 0 C4.875 4.75 4.875 4.75 6 7 C6 9.31 6 11.62 6 14 C0.06 14 -5.88 14 -12 14 C-12.33 13.34 -12.66 12.68 -13 12 C-13.99 11.34 -14.98 10.68 -16 10 C-10.06 10 -4.12 10 2 10 C1.2981424 3.59628479 1.2981424 3.59628479 0 0 Z " fill="#89AD8E" transform="translate(393,202)"/>
<path d="M0 0 C10.89 0 21.78 0 33 0 C32.67 1.32 32.34 2.64 32 4 C32 3.01 32 2.02 32 1 C21.77 1 11.54 1 1 1 C1 4.63 1 8.26 1 12 C5.29 12 9.58 12 14 12 C13.67 13.65 13.34 15.3 13 17 C9.93109813 18.53445094 7.29905734 17.54984289 4 17 C4 15.68 4 14.36 4 13 C2.68 13 1.36 13 0 13 C0 8.71 0 4.42 0 0 Z " fill="#5D9D7C" transform="translate(363,217)"/>
<path d="M0 0 C9.625 -0.25 9.625 -0.25 13 2 C13 2.66 13 3.32 13 4 C9.7 4 6.4 4 3 4 C3 6.64 3 9.28 3 12 C5.31 12 7.62 12 10 12 C10 12.33 10 12.66 10 13 C6.7 13 3.4 13 0 13 C0 8.71 0 4.42 0 0 Z " fill="#91B294" transform="translate(257,205)"/>
<path d="M0 0 C3.5718623 3.5718623 4 8.10186234 4 13 C1.69 13 -0.62 13 -3 13 C-2.343621 8.51474352 -1.29925791 4.33085971 0 0 Z " fill="#F4F8F5" transform="translate(437,216)"/>
<path d="M0 0 C2 1 2 1 2.8515625 3.28515625 C3.10679687 4.20167969 3.36203125 5.11820313 3.625 6.0625 C3.88539063 6.98160156 4.14578125 7.90070313 4.4140625 8.84765625 C4.60742188 9.55792969 4.80078125 10.26820313 5 11 C2.36 11 -0.28 11 -3 11 C-2.69078116 9.54096742 -2.37751201 8.08279278 -2.0625 6.625 C-1.88847656 5.81289062 -1.71445313 5.00078125 -1.53515625 4.1640625 C-1 2 -1 2 0 0 Z " fill="#F0F5F2" transform="translate(198,218)"/>
<path d="M0 0 C0.66 0 1.32 0 2 0 C2 0.66 2 1.32 2 2 C2.5775 1.649375 3.155 1.29875 3.75 0.9375 C6.35801776 -0.14917407 7.39417629 0.06934867 10 1 C9.625 2.9375 9.625 2.9375 9 5 C7 6 7 6 5.125 5.5 C2.71114731 4.93203466 1.33160767 5.25055468 -1 6 C-1.625 4.125 -1.625 4.125 -2 2 C-1.34 1.34 -0.68 0.68 0 0 Z " fill="#205C1B" transform="translate(56,289)"/>
<path d="M0 0 C1.32 0.66 2.64 1.32 4 2 C3.34 3.32 2.68 4.64 2 6 C1.2575 5.79375 0.515 5.5875 -0.25 5.375 C-3.32330841 4.95591249 -4.42786866 5.38050989 -7 7 C-7.66 6.01 -8.32 5.02 -9 4 C-8.34 3.01 -7.68 2.02 -7 1 C-5.824375 1.309375 -5.824375 1.309375 -4.625 1.625 C-3.75875 1.74875 -2.8925 1.8725 -2 2 C-1.34 1.34 -0.68 0.68 0 0 Z " fill="#215E1D" transform="translate(149,303)"/>
<path d="M0 0 C0.66 0 1.32 0 2 0 C2.36192504 2.12369237 2.71431747 4.2490113 3.0625 6.375 C3.25972656 7.55835938 3.45695312 8.74171875 3.66015625 9.9609375 C4 13 4 13 3 15 C2.34 15 1.68 15 1 15 C-0.42705634 9.69276568 -1.4002792 5.46108889 0 0 Z " fill="#88B952" transform="translate(124,252)"/>
<path d="M0 0 C3.16115776 1.36983503 3.9927092 1.9890638 6 5 C6.125 8.1875 6.125 8.1875 6 11 C5.01 11 4.02 11 3 11 C0.84694043 7.14243493 -0.39253254 4.44870215 0 0 Z " fill="#7EB343" transform="translate(148,284)"/>
<path d="M0 0 C3.3 0 6.6 0 10 0 C9.34 1.65 8.68 3.3 8 5 C5.36 4.67 2.72 4.34 0 4 C0 2.68 0 1.36 0 0 Z " fill="#A6BFA5" transform="translate(367,230)"/>
<path d="M0 0 C0.33 0 0.66 0 1 0 C1 1.65 1 3.3 1 5 C2.32 5.33 3.64 5.66 5 6 C4.625 7.9375 4.625 7.9375 4 10 C3.01 10.495 3.01 10.495 2 11 C1.01 10.34 0.02 9.68 -1 9 C-1.47114738 6.2572492 -1.17805784 3.80441103 -1 1 C-0.67 0.67 -0.34 0.34 0 0 Z " fill="#3B7526" transform="translate(34,270)"/>
<path d="M0 0 C2 1 2 1 2.62109375 2.765625 C3.02399618 5.14150323 3.09791478 7.34179517 3.0625 9.75 C3.05347656 10.54921875 3.04445312 11.3484375 3.03515625 12.171875 C3.01775391 13.07679688 3.01775391 13.07679688 3 14 C2.34 14 1.68 14 1 14 C-0.20568053 9.32798795 -0.09382426 4.78503708 0 0 Z " fill="#7FB345" transform="translate(34,281)"/>
<path d="M0 0 C0.66 0 1.32 0 2 0 C2.33 3.96 2.66 7.92 3 12 C2.34 12 1.68 12 1 12 C-0.26237731 9.47524538 -0.09856404 7.68799534 -0.0625 4.875 C-0.05347656 3.96492188 -0.04445313 3.05484375 -0.03515625 2.1171875 C-0.02355469 1.41851562 -0.01195313 0.71984375 0 0 Z " fill="#7BB13F" transform="translate(125,267)"/>
<path d="M0 0 C5.57142857 5.14285714 5.57142857 5.14285714 6 9 C5.34 9 4.68 9 4 9 C4 11.31 4 13.62 4 16 C3.67 16 3.34 16 3 16 C2.92652344 14.89591797 2.92652344 14.89591797 2.8515625 13.76953125 C2.77679688 12.79371094 2.70203125 11.81789062 2.625 10.8125 C2.55539062 9.84957031 2.48578125 8.88664063 2.4140625 7.89453125 C1.99784147 4.98491062 1.20125904 2.67109226 0 0 Z " fill="#8BAF91" transform="translate(287,199)"/>
<path d="M0 0 C1.32 0.66 2.64 1.32 4 2 C3.34 3.32 2.68 4.64 2 6 C0.68 5.34 -0.64 4.68 -2 4 C-1.34 2.68 -0.68 1.36 0 0 Z " fill="#155511" transform="translate(142,304)"/>
<path d="M0 0 C1.32 0.66 2.64 1.32 4 2 C3.34 3.32 2.68 4.64 2 6 C0.68 5.34 -0.64 4.68 -2 4 C-1.34 2.68 -0.68 1.36 0 0 Z " fill="#1E5B1A" transform="translate(146,309)"/>
</svg>
